{
  "accessors": [
    {
      "bufferView": 2,
      "componentType": 5126,
      "count": 866,
      "max": [
        0.8458531498908997,
        4.159848213195801,
        0.8458532094955444
      ],
      "min": [
        -0.8458532094955444,
        0.003164296969771385,
        -0.8458532094955444
      ],
      "type": "VEC3"
    },
    {
      "bufferView": 2,
      "byteOffset": 10392,
      "componentType": 5126,
      "count": 866,
      "max": [
        0.9998770952224731,
        1.0,
        0.9998770952224731
      ],
      "min": [
        -0.9998770952224731,
        -1.0,
        -0.9998770952224731
      ],
      "type": "VEC3"
    },
    {
      "bufferView": 1,
      "componentType": 5126,
      "count": 866,
      "max": [
        0.0,
        0.0
      ],
      "min": [
        0.0,
        0.0
      ],
      "type": "VEC2"
    },
    {
      "bufferView": 0,
      "componentType": 5125,
      "count": 5184,
      "type": "SCALAR"
    },
    {
      "bufferView": 2,
      "byteOffset": 20784,
      "componentType": 5126,
      "count": 802,
      "max": [
        0.9600262641906738,
        2.5413894653320313,
        0.9600263237953186
      ],
      "min": [
        -0.9600262641906738,
        0.007093772292137146,
        -0.9600263237953186
      ],
      "type": "VEC3"
    },
    {
      "bufferView": 2,
      "byteOffset": 30408,
      "componentType": 5126,
      "count": 802,
      "max": [
        0.9999805092811584,
        1.0,
        0.9999805092811584
      ],
      "min": [
        -0.9999805092811584,
        -1.0,
        -0.9999804496765137
      ],
      "type": "VEC3"
    },
    {
      "bufferView": 1,
      "byteOffset": 6928,
      "componentType": 5126,
      "count": 802,
      "max": [
        0.0,
        0.0
      ],
      "min": [
        0.0,
        0.0
      ],
      "type": "VEC2"
    },
    {
      "bufferView": 0,
      "byteOffset": 20736,
      "componentType": 5125,
      "count": 4800,
      "type": "SCALAR"
    },
    {
      "bufferView": 2,
      "byteOffset": 40032,
      "componentType": 5126,
      "count": 1681,
      "max": [
        1.0343587398529053,
        0.9979753494262695,
        1.0343587398529053
      ],
      "min": [
        -1.0343587398529053,
        -0.9976520538330078,
        -1.0343587398529053
      ],
      "type": "VEC3"
    },
    {
      "bufferView": 2,
      "byteOffset": 60204,
      "componentType": 5126,
      "count": 1681,
      "max": [
        0.9985063076019287,
        1.0,
        0.9985063076019287
      ],
      "min": [
        -0.9985062479972839,
        -1.0,
        -0.9985063076019287
      ],
      "type": "VEC3"
    },
    {
      "bufferView": 1,
      "byteOffset": 13344,
      "componentType": 5126,
      "count": 1681,
      "max": [
        1.0000001192092896,
        1.0000001192092896
      ],
      "min": [
        0.0,
        0.01000000536441803
      ],
      "type": "VEC2"
    },
    {
      "bufferView": 0,
      "byteOffset": 39936,
      "componentType": 5125,
      "count": 8256,
      "type": "SCALAR"
    },
    {
      "bufferView": 2,
      "byteOffset": 80376,
      "componentType": 5126,
      "count": 2210,
      "max": [
        0.6795541048049927,
        3.878013849258423,
        0.6795541048049927
      ],
      "min": [
        -0.6795541048049927,
        0.0007508448325097561,
        -0.6795541048049927
      ],
      "type": "VEC3"
    },
    {
      "bufferView": 2,
      "byteOffset": 106896,
      "componentType": 5126,
      "count": 2210,
      "max": [
        1.0,
        1.0,
        1.0
      ],
      "min": [
        -1.0,
        -1.0,
        -1.0
      ],
      "type": "VEC3"
    },
    {
      "bufferView": 1,
      "byteOffset": 26792,
      "componentType": 5126,
      "count": 2210,
      "max": [
        0.0,
        0.0
      ],
      "min": [
        0.0,
        0.0
      ],
      "type": "VEC2"
    },
    {
      "bufferView": 0,
      "byteOffset": 72960,
      "componentType": 5125,
      "count": 13248,
      "type": "SCALAR"
    },
    {
      "bufferView": 2,
      "byteOffset": 133416,
      "componentType": 5126,
      "count": 1442,
      "max": [
        1.1756198406219482,
        3.9267330169677734,
        1.1756198406219482
      ],
      "min": [
        -1.1756198406219482,
        0.0,
        -1.1756198406219482
      ],
      "type": "VEC3"
    },
    {
      "bufferView": 2,
      "byteOffset": 150720,
      "componentType": 5126,
      "count": 1442,
      "max": [
        0.9984170198440552,
        1.0,
        0.9984169602394104
      ],
      "min": [
        -0.9984170198440552,
        -1.0,
        -0.9984169602394104
      ],
      "type": "VEC3"
    },
    {
      "bufferView": 1,
      "byteOffset": 44472,
      "componentType": 5126,
      "count": 1442,
      "max": [
        0.0,
        0.0
      ],
      "min": [
        0.0,
        0.0
      ],
      "type": "VEC2"
    },
    {
      "bufferView": 0,
      "byteOffset": 125952,
      "componentType": 5125,
      "count": 8640,
      "type": "SCALAR"
    },
    {
      "bufferView": 2,
      "byteOffset": 168024,
      "componentType": 5126,
      "count": 2322,
      "max": [
        1.122899055480957,
        3.5180749893188477,
        1.122899055480957
      ],
      "min": [
        -1.122899055480957,
        0.007045413367450237,
        -2.027975559234619
      ],
      "type": "VEC3"
    },
    {
      "bufferView": 2,
      "byteOffset": 195888,
      "componentType": 5126,
      "count": 2322,
      "max": [
        0.9993978142738342,
        1.0,
        0.9999936819076538
      ],
      "min": [
        -0.9993978142738342,
        -0.9999940395355225,
        -1.0
      ],
      "type": "VEC3"
    },
    {
      "bufferView": 1,
      "byteOffset": 56008,
      "componentType": 5126,
      "count": 2322,
      "max": [
        0.0,
        0.0
      ],
      "min": [
        0.0,
        0.0
      ],
      "type": "VEC2"
    },
    {
      "bufferView": 0,
      "byteOffset": 160512,
      "componentType": 5125,
      "count": 13740,
      "type": "SCALAR"
    },
    {
      "bufferView": 2,
      "byteOffset": 223752,
      "componentType": 5126,
      "count": 930,
      "max": [
        0.3894188106060028,
        1.3863483667373657,
        0.38941892981529236
      ],
      "min": [
        -0.38941892981529236,
        0.0009859376586973667,
        -0.38941892981529236
      ],
      "type": "VEC3"
    },
    {
      "bufferView": 2,
      "byteOffset": 234912,
      "componentType": 5126,
      "count": 930,
      "max": [
        0.9994006156921387,
        1.0,
        0.9994006156921387
      ],
      "min": [
        -0.9994006156921387,
        -1.0,
        -0.9994006156921387
      ],
      "type": "VEC3"
    },
    {
      "bufferView": 1,
      "byteOffset": 74584,
      "componentType": 5126,
      "count": 930,
      "max": [
        0.0,
        0.0
      ],
      "min": [
        0.0,
        0.0
      ],
      "type": "VEC2"
    },
    {
      "bufferView": 0,
      "byteOffset": 215472,
      "componentType": 5125,
      "count": 5568,
      "type": "SCALAR"
    },
    {
      "bufferView": 2,
      "byteOffset": 246072,
      "componentType": 5126,
      "count": 1314,
      "max": [
        1.0186288356781006,
        3.4260945320129395,
        1.018628716468811
      ],
      "min": [
        -1.018628716468811,
        -1.0000001192092896,
        -1.0186285972595215
      ],
      "type": "VEC3"
    },
    {
      "bufferView": 2,
      "byteOffset": 261840,
      "componentType": 5126,
      "count": 1314,
      "max": [
        0.9990134239196777,
        1.0,
        0.999013364315033
      ],
      "min": [
        -0.9990133047103882,
        -1.0,
        -0.999013364315033
      ],
      "type": "VEC3"
    },
    {
      "bufferView": 1,
      "byteOffset": 82024,
      "componentType": 5126,
      "count": 1314,
      "max": [
        0.0,
        0.0
      ],
      "min": [
        0.0,
        0.0
      ],
      "type": "VEC2"
    },
    {
      "bufferView": 0,
      "byteOffset": 237744,
      "componentType": 5125,
      "count": 7872,
      "type": "SCALAR"
    },
    {
      "bufferView": 2,
      "byteOffset": 277608,
      "componentType": 5126,
      "count": 1634,
      "max": [
        1.4604377746582031,
        3.169020652770996,
        1.4604378938674927
      ],
      "min": [
        -1.460437536239624,
        0.001124630100093782,
        -1.4604376554489136
      ],
      "type": "VEC3"
    },
    {
      "bufferView": 2,
      "byteOffset": 297216,
      "componentType": 5126,
      "count": 1634,
      "max": [
        1.0,
        1.0,
        1.0
      ],
      "min": [
        -1.0,
        -1.0,
        -1.0
      ],
      "type": "VEC3"
    },
    {
      "bufferView": 1,
      "byteOffset": 92536,
      "componentType": 5126,
      "count": 1634,
      "max": [
        0.0,
        0.0
      ],
      "min": [
        0.0,
        0.0
      ],
      "type": "VEC2"
    },
    {
      "bufferView": 0,
      "byteOffset": 269232,
      "componentType": 5125,
      "count": 9792,
      "type": "SCALAR"
    },
    {
      "bufferView": 2,
      "byteOffset": 316824,
      "componentType": 5126,
      "count": 1122,
      "max": [
        1.4604377746582031,
        3.169020652770996,
        1.4604378938674927
      ],
      "min": [
        -1.460437536239624,
        0.0012061389861628413,
        -1.4604376554489136
      ],
      "type": "VEC3"
    },
    {
      "bufferView": 2,
      "byteOffset": 330288,
      "componentType": 5126,
      "count": 1122,
      "max": [
        1.0,
        1.0,
        1.0
      ],
      "min": [
        -1.0,
        -1.0,
        -1.0
      ],
      "type": "VEC3"
    },
    {
      "bufferView": 1,
      "byteOffset": 105608,
      "componentType": 5126,
      "count": 1122,
      "max": [
        0.0,
        0.0
      ],
      "min": [
        0.0,
        0.0
      ],
      "type": "VEC2"
    },
    {
      "bufferView": 0,
      "byteOffset": 308400,
      "componentType": 5125,
      "count": 6720,
      "type": "SCALAR"
    }
  ],
  "asset": {
    "extras": {
      "author": "RagingCow (https://sketchfab.com/marcussamiran)",
      "license": "CC-BY-4.0 (http://creativecommons.org/licenses/by/4.0/)",
      "source": "https://sketchfab.com/3d-models/glass-collection-0ff8fc5007dd4e9da675109fe7c443d6",
      "title": "Glass Collection"
    },
    "generator": "Sketchfab-15.24.0",
    "version": "2.0"
  },
  "bufferViews": [
    {
      "buffer": 0,
      "byteLength": 335280,
      "name": "floatBufferViews",
      "target": 34963
    },
    {
      "buffer": 0,
      "byteLength": 114584,
      "byteOffset": 335280,
      "byteStride": 8,
      "name": "floatBufferViews",
      "target": 34962
    },
    {
      "buffer": 0,
      "byteLength": 343752,
      "byteOffset": 449864,
      "byteStride": 12,
      "name": "floatBufferViews",
      "target": 34962
    }
  ],
  "buffers": [
    {
      "byteLength": 793616,
      "uri": "scene.bin"
    }
  ],
  "extensionsUsed": [
    "KHR_materials_specular"
  ],
  "materials": [
    {
      "alphaMode": "BLEND",
      "doubleSided": true,
      "name": "Material.005",
      "pbrMetallicRoughness": {
        "baseColorFactor": [
          1.0,
          1.0,
          1.0,
          0.2
        ],
        "roughnessFactor": 0.0
      }
    },
    {
      "alphaMode": "BLEND",
      "doubleSided": true,
      "name": "Material.008",
      "pbrMetallicRoughness": {
        "baseColorFactor": [
          1.0,
          1.0,
          1.0,
          0.2
        ],
        "roughnessFactor": 0.0
      }
    },
    {
      "alphaMode": "BLEND",
      "doubleSided": true,
      "name": "Material.010",
      "pbrMetallicRoughness": {
        "baseColorFactor": [
          1.0,
          1.0,
          1.0,
          0.2
        ],
        "roughnessFactor": 0.0
      }
    },
    {
      "alphaMode": "BLEND",
      "doubleSided": true,
      "name": "Material.002",
      "pbrMetallicRoughness": {
        "baseColorFactor": [
          1.0,
          1.0,
          1.0,
          0.2
        ],
        "roughnessFactor": 0.0
      }
    },
    {
      "alphaMode": "BLEND",
      "doubleSided": true,
      "extensions": {
        "KHR_materials_specular": {
          "specularColorFactor": [
            1.0,
            1.0,
            1.0
          ],
          "specularFactor": 1.0
        }
      },
      "name": "Material.004",
      "pbrMetallicRoughness": {
        "baseColorFactor": [
          1.0,
          1.0,
          1.0,
          0.2
        ],
        "roughnessFactor": 0.0
      }
    },
    {
      "alphaMode": "BLEND",
      "doubleSided": true,
      "name": "Material.011",
      "pbrMetallicRoughness": {
        "baseColorFactor": [
          1.0,
          1.0,
          1.0,
          0.2
        ],
        "roughnessFactor": 0.0
      }
    },
    {
      "alphaMode": "BLEND",
      "doubleSided": true,
      "name": "Material.013",
      "pbrMetallicRoughness": {
        "baseColorFactor": [
          1.0,
          1.0,
          1.0,
          0.2
        ],
        "roughnessFactor": 0.0
      }
    },
    {
      "alphaMode": "BLEND",
      "doubleSided": true,
      "extensions": {
        "KHR_materials_specular": {
          "specularColorFactor": [
            1.0,
            1.0,
            1.0
          ],
          "specularFactor": 0.5405734329676394
        }
      },
      "name": "Material.017",
      "pbrMetallicRoughness": {
        "baseColorFactor": [
          1.0,
          1.0,
          1.0,
          0.2
        ],
        "roughnessFactor": 0.0
      }
    },
    {
      "alphaMode": "BLEND",
      "doubleSided": true,
      "name": "Material.009",
      "pbrMetallicRoughness": {
        "baseColorFactor": [
          1.0,
          1.0,
          1.0,
          0.2
        ],
        "roughnessFactor": 0.0
      }
    },
    {
      "alphaMode": "BLEND",
      "doubleSided": true,
      "name": "Material.018",
      "pbrMetallicRoughness": {
        "baseColorFactor": [
          1.0,
          1.0,
          1.0,
          0.2
        ],
        "roughnessFactor": 0.0
      }
    }
  ],
  "meshes": [
    {
      "name": "Object_0",
      "primitives": [
        {
          "attributes": {
            "NORMAL": 1,
            "POSITION": 0,
            "TEXCOORD_0": 2
          },
          "indices": 3,
          "material": 0,
          "mode": 4
        }
      ]
    },
    {
      "name": "Object_1",
      "primitives": [
        {
          "attributes": {
            "NORMAL": 5,
            "POSITION": 4,
            "TEXCOORD_0": 6
          },
          "indices": 7,
          "material": 1,
          "mode": 4
        }
      ]
    },
    {
      "name": "Object_2",
      "primitives": [
        {
          "attributes": {
            "NORMAL": 9,
            "POSITION": 8,
            "TEXCOORD_0": 10
          },
          "indices": 11,
          "material": 2,
          "mode": 4
        }
      ]
    },
    {
      "name": "Object_3",
      "primitives": [
        {
          "attributes": {
            "NORMAL": 13,
            "POSITION": 12,
            "TEXCOORD_0": 14
          },
          "indices": 15,
          "material": 3,
          "mode": 4
        }
      ]
    },
    {
      "name": "Object_4",
      "primitives": [
        {
          "attributes": {
            "NORMAL": 17,
            "POSITION": 16,
            "TEXCOORD_0": 18
          },
          "indices": 19,
          "material": 4,
          "mode": 4
        }
      ]
    },
    {
      "name": "Object_5",
      "primitives": [
        {
          "attributes": {
            "NORMAL": 21,
            "POSITION": 20,
            "TEXCOORD_0": 22
          },
          "indices": 23,
          "material": 5,
          "mode": 4
        }
      ]
    },
    {
      "name": "Object_6",
      "primitives": [
        {
          "attributes": {
            "NORMAL": 25,
            "POSITION": 24,
            "TEXCOORD_0": 26
          },
          "indices": 27,
          "material": 6,
          "mode": 4
        }
      ]
    },
    {
      "name": "Object_7",
      "primitives": [
        {
          "attributes": {
            "NORMAL": 29,
            "POSITION": 28,
            "TEXCOORD_0": 30
          },
          "indices": 31,
          "material": 7,
          "mode": 4
        }
      ]
    },
    {
      "name": "Object_8",
      "primitives": [
        {
          "attributes": {
            "NORMAL": 33,
            "POSITION": 32,
            "TEXCOORD_0": 34
          },
          "indices": 35,
          "material": 8,
          "mode": 4
        }
      ]
    },
    {
      "name": "Object_9",
      "primitives": [
        {
          "attributes": {
            "NORMAL": 37,
            "POSITION": 36,
            "TEXCOORD_0": 38
          },
          "indices": 39,
          "material": 9,
          "mode": 4
        }
      ]
    }
  ],
  "nodes": [
    {
      "children": [
        1
      ],
      "matrix": [
        1.0,
        0.0,
        0.0,
        0.0,
        0.0,
        2.220446049250313e-16,
        -1.0,
        0.0,
        0.0,
        1.0,
        2.220446049250313e-16,
        0.0,
        0.0,
        0.0,
        0.0,
        1.0
      ],
      "name": "Sketchfab_model"
    },
    {
      "children": [
        2
      ],
      "name": "root"
    },
    {
      "children": [
        3,
        5,
        7,
        9,
        11,
        13,
        15,
        17,
        19,
        21
      ],
      "matrix": [
        1.0,
        0.0,
        0.0,
        0.0,
        0.0,
        2.220446049250313e-16,
        1.0,
        0.0,
        0.0,
        -1.0,
        2.220446049250313e-16,
        0.0,
        0.0,
        0.0,
        0.0,
        1.0
      ],
      "name": "GLTF_SceneRootNode"
    },
    {
      "children": [
        4
      ],
      "matrix": [
        1.0,
        0.0,
        0.0,
        0.0,
        0.0,
        1.0,
        0.0,
        0.0,
        0.0,
        0.0,
        1.0,
        0.0,
        0.0,
        0.0,
        -1.867103099822998,
        1.0
      ],
      "name": "zombie glass_0"
    },
    {
      "mesh": 0,
      "name": "Object_4"
    },
    {
      "children": [
        6
      ],
      "matrix": [
        1.0,
        0.0,
        0.0,
        0.0,
        0.0,
        1.0,
        0.0,
        0.0,
        0.0,
        0.0,
        1.0,
        0.0,
        0.0,
        0.0,
        -4.381655216217041,
        1.0
      ],
      "name": "cocktail glass_1"
    },
    {
      "mesh": 1,
      "name": "Object_6"
    },
    {
      "children": [
        8
      ],
      "matrix": [
        0.8468133211135864,
        0.0,
        0.0,
        0.0,
        0.0,
        1.0667163133621216,
        0.0,
        0.0,
        0.0,
        0.0,
        0.8468133211135864,
        0.0,
        0.0,
        1.1334056854248047,
        -6.94595193862915,
        1.0
      ],
      "name": "rocks glass_2"
    },
    {
      "mesh": 2,
      "name": "Object_8"
    },
    {
      "children": [
        10
      ],
      "matrix": [
        1.0,
        0.0,
        0.0,
        0.0,
        0.0,
        1.0,
        0.0,
        0.0,
        0.0,
        0.0,
        1.0,
        0.0,
        0.0,
        0.0,
        -9.227123260498047,
        1.0
      ],
      "name": "hurricane glass_3"
    },
    {
      "mesh": 3,
      "name": "Object_10"
    },
    {
      "children": [
        12
      ],
      "matrix": [
        1.0,
        0.0,
        0.0,
        0.0,
        0.0,
        1.0,
        0.0,
        0.0,
        0.0,
        0.0,
        1.0,
        0.0,
        0.0,
        0.0,
        -11.585826873779297,
        1.0
      ],
      "name": "pint glass_4"
    },
    {
      "mesh": 4,
      "name": "Object_12"
    },
    {
      "children": [
        14
      ],
      "matrix": [
        1.1474018096923828,
        0.0,
        0.0,
        0.0,
        0.0,
        1.1931486129760742,
        0.0,
        0.0,
        0.0,
        0.0,
        1.1474018096923828,
        0.0,
        0.0,
        0.0,
        1.3787562847137451,
        1.0
      ],
      "name": "seidel Glass_5"
    },
    {
      "mesh": 5,
      "name": "Object_14"
    },
    {
      "children": [
        16
      ],
      "matrix": [
        1.0,
        0.0,
        0.0,
        0.0,
        0.0,
        1.0,
        0.0,
        0.0,
        0.0,
        0.0,
        1.0,
        0.0,
        0.0,
        0.0,
        -13.8319673538208,
        1.0
      ],
      "name": "shot glass_6"
    },
    {
      "mesh": 6,
      "name": "Object_16"
    },
    {
      "children": [
        18
      ],
      "matrix": [
        1.229246973991394,
        0.0,
        0.0,
        0.0,
        0.0,
        0.9692951440811157,
        0.0,
        0.0,
        0.0,
        0.0,
        1.229246973991394,
        0.0,
        0.0,
        0.9633808135986328,
        11.168288230895996,
        1.0
      ],
      "name": "highball glass_7"
    },
    {
      "mesh": 7,
      "name": "Object_18"
    },
    {
      "children": [
        20
      ],
      "matrix": [
        1.0,
        0.0,
        0.0,
        0.0,
        0.0,
        1.0,
        0.0,
        0.0,
        0.0,
        0.0,
        1.0,
        0.0,
        0.0,
        0.0,
        8.33614444732666,
        1.0
      ],
      "name": "margarita glass_8"
    },
    {
      "mesh": 8,
      "name": "Object_20"
    },
    {
      "children": [
        22
      ],
      "matrix": [
        1.0,
        0.0,
        0.0,
        0.0,
        0.0,
        1.0,
        0.0,
        0.0,
        0.0,
        0.0,
        1.0,
        0.0,
        0.0,
        0.0,
        4.9641547203063965,
        1.0
      ],
      "name": "martini glass_9"
    },
    {
      "mesh": 9,
      "name": "Object_22"
    }
  ],
  "scene": 0,
  "scenes": [
    {
      "name": "Sketchfab_Scene",
      "nodes": [
        0
      ]
    }
  ]
}
